<svg width="10" height="10" viewBox="0 0 20 20" fill="none" xmlns="http://www.w3.org/2000/svg">
<path d="M18.75 10.0001C18.7504 11.2588 18.434 12.4975 17.83 13.6018C17.2259 14.7062 16.3536 15.6407 15.2935 16.3194C14.2333 16.998 13.0194 17.3989 11.7636 17.4851C10.5077 17.5713 9.25044 17.34 8.1075 16.8126C7.88157 16.7083 7.70631 16.5186 7.62028 16.2851C7.53425 16.0516 7.54449 15.7935 7.64875 15.5676C7.75301 15.3416 7.94276 15.1664 8.17624 15.0804C8.40972 14.9943 8.66782 15.0046 8.89375 15.1088C9.75077 15.5035 10.6933 15.6762 11.6346 15.611C12.5758 15.5459 13.4856 15.2451 14.2801 14.7362C15.0746 14.2274 15.7284 13.5268 16.1812 12.6991C16.6341 11.8713 16.8714 10.943 16.8714 9.99946C16.8714 9.05594 16.6341 8.12759 16.1812 7.29984C15.7284 6.47209 15.0746 5.77154 14.2801 5.26267C13.4856 4.75381 12.5758 4.45298 11.6346 4.38787C10.6933 4.32275 9.75077 4.49546 8.89375 4.89008C8.78168 4.94451 8.6599 4.97606 8.5355 4.98288C8.41111 4.9897 8.2866 4.97166 8.16926 4.92981C8.05191 4.88796 7.94409 4.82314 7.85208 4.73915C7.76007 4.65515 7.68573 4.55366 7.6334 4.4406C7.58106 4.32754 7.55179 4.20519 7.54728 4.08069C7.54278 3.95619 7.56313 3.83204 7.60716 3.71549C7.65118 3.59895 7.71799 3.49235 7.80369 3.40192C7.88938 3.31149 7.99224 3.23905 8.10625 3.18883C9.24915 2.66117 10.5065 2.42968 11.7624 2.51567C13.0182 2.60167 14.2323 3.00239 15.2926 3.68091C16.3529 4.35943 17.2254 5.29392 17.8296 6.39826C18.4338 7.5026 18.7503 8.74126 18.75 10.0001Z" fill="#345782"/>
<path d="M5.94375 14.1313C6.03491 14.0485 6.10884 13.9485 6.16132 13.837C6.2138 13.7255 6.2438 13.6048 6.24961 13.4818C6.25541 13.3587 6.23691 13.2357 6.19515 13.1198C6.15339 13.0039 6.0892 12.8974 6.00625 12.8063L4.30625 10.9376L11.5625 10.9376C11.8111 10.9376 12.0496 10.8388 12.2254 10.663C12.4012 10.4872 12.5 10.2487 12.5 10.0001C12.5 9.75144 12.4012 9.51299 12.2254 9.33717C12.0496 9.16136 11.8111 9.06259 11.5625 9.06258L4.30625 9.06258L6.00625 7.19384C6.17367 7.00984 6.26114 6.76688 6.24942 6.51839C6.2377 6.26991 6.12774 6.03625 5.94375 5.86883C5.75976 5.70142 5.51679 5.61395 5.26831 5.62567C5.01982 5.63739 4.78617 5.74734 4.61875 5.93134L1.49375 9.36883C1.33562 9.54167 1.24814 9.76757 1.2486 10.0018C1.24906 10.2361 1.33744 10.4616 1.49625 10.6338L4.61875 14.0688C4.70161 14.16 4.80163 14.2339 4.91308 14.2864C5.02454 14.3389 5.14524 14.3689 5.2683 14.3747C5.39135 14.3805 5.51434 14.362 5.63024 14.3202C5.74614 14.2785 5.85267 14.2143 5.94375 14.1313Z" fill="#345782"/>
</svg>
