<svg width="61" height="60" viewBox="0 0 61 60" fill="none" xmlns="http://www.w3.org/2000/svg">
<g opacity="0.1" clip-path="url(#clip0_1456_1544)">
<path d="M32.5 32L28.25 36.25L24.25 32.25L28.5 28C28.8611 27.5186 29.0364 26.9231 28.9937 26.3228C28.951 25.7225 28.6933 25.1578 28.2678 24.7322C27.8422 24.3067 27.2775 24.049 26.6772 24.0063C26.0769 23.9636 25.4814 24.1389 25 24.5L20.75 28.75L19.125 27.125C18.9025 26.8825 18.6321 26.6889 18.3308 26.5565C18.0296 26.424 17.7041 26.3557 17.375 26.3557C17.0459 26.3557 16.7204 26.424 16.4192 26.5565C16.1179 26.6889 15.8475 26.8825 15.625 27.125L11.875 30.875C10.6977 32.0094 9.7593 33.3681 9.11526 34.8708C8.47122 36.3736 8.13452 37.9901 8.125 39.625C8.0794 42.1431 8.87076 44.6051 10.375 46.625L6.25 50.75C6.00752 50.9725 5.81392 51.2429 5.68148 51.5442C5.54904 51.8454 5.48065 52.1709 5.48065 52.5C5.48065 52.8291 5.54904 53.1546 5.68148 53.4558C5.81392 53.7571 6.00752 54.0275 6.25 54.25C6.47248 54.4925 6.74292 54.6861 7.04417 54.8185C7.34543 54.951 7.67092 55.0193 8 55.0193C8.32908 55.0193 8.65457 54.951 8.95582 54.8185C9.25707 54.6861 9.52752 54.4925 9.75 54.25L13.75 50.25C15.8986 51.7951 18.4785 52.6259 21.125 52.625C24.4423 52.6172 27.6259 51.3169 30 49L33.75 45.25C34.221 44.7884 34.4906 44.1594 34.5 43.5C34.5197 43.1701 34.4622 42.8401 34.332 42.5363C34.2018 42.2325 34.0025 41.9633 33.75 41.75L31.75 39.75L36 35.5C36.3611 35.0186 36.5364 34.4231 36.4937 33.8228C36.451 33.2225 36.1933 32.6578 35.7678 32.2322C35.3422 31.8067 34.7775 31.549 34.1772 31.5063C33.5769 31.4636 32.9814 31.6389 32.5 32ZM26.5 45.5C25.077 46.8821 23.1713 47.6553 21.1875 47.6553C19.2037 47.6553 17.298 46.8821 15.875 45.5L15.375 45C13.976 43.5549 13.1726 41.6358 13.125 39.625C13.1532 37.6467 13.9619 35.7597 15.375 34.375L17.375 32.375L28.375 43.5L26.5 45.5Z" fill="black"/>
<path d="M54.75 5.74981C54.5275 5.50733 54.2571 5.31373 53.9558 5.1813C53.6546 5.04886 53.3291 4.98047 53 4.98047C52.6709 4.98047 52.3454 5.04886 52.0442 5.1813C51.7429 5.31373 51.4725 5.50733 51.25 5.74981L47 9.99981C44.6041 8.21403 41.6477 7.34565 38.6666 7.55203C35.6855 7.75841 32.877 9.02591 30.75 11.1248L27 14.8748C26.529 15.3364 26.2594 15.9654 26.25 16.6248C26.2303 16.9547 26.2878 17.2847 26.418 17.5885C26.5482 17.8923 26.7475 18.1615 27 18.3748L41.625 32.9998C41.8475 33.2423 42.1179 33.4359 42.4192 33.5683C42.7204 33.7008 43.0459 33.7692 43.375 33.7692C43.7041 33.7692 44.0296 33.7008 44.3308 33.5683C44.6321 33.4359 44.9025 33.2423 45.125 32.9998L48.875 29.3748C50.0391 28.211 50.9594 26.8265 51.5818 25.3026C52.2043 23.7787 52.5164 22.1459 52.5 20.4998C52.49 18.0661 51.797 15.6841 50.5 13.6248L54.75 9.24981C54.9925 9.02734 55.1861 8.75689 55.3185 8.45564C55.451 8.15438 55.5193 7.82889 55.5193 7.49981C55.5193 7.17073 55.451 6.84525 55.3185 6.54399C55.1861 6.24274 54.9925 5.97229 54.75 5.74981ZM45.375 25.7498L43.375 27.7498L32.25 16.6248L34.25 14.7498C34.938 14.0353 35.7631 13.4669 36.676 13.0786C37.5888 12.6904 38.5705 12.4903 39.5625 12.4903C40.5544 12.4903 41.5362 12.6904 42.449 13.0786C43.3618 13.4669 44.187 14.0353 44.875 14.7498L45.375 15.1248C46.739 16.5824 47.4985 18.5036 47.5 20.4998C47.5092 21.4718 47.3262 22.4359 46.9616 23.3369C46.5969 24.2379 46.0577 25.0579 45.375 25.7498Z" fill="black"/>
</g>
<defs>
<clipPath id="clip0_1456_1544">
<rect width="60" height="60" fill="white" transform="translate(0.5)"/>
</clipPath>
</defs>
</svg>
