<svg width="23" height="19" viewBox="0 0 23 19" fill="none" xmlns="http://www.w3.org/2000/svg">
<path d="M0.91335 7.46774L0.456682 7.92447L0 7.46774L0.456682 7.01107L0.91335 7.46774ZM22.2258 17.8011C22.2258 18.1577 21.9366 18.4469 21.58 18.4469C21.2234 18.4469 20.9342 18.1577 20.9342 17.8011H22.2258ZM6.91501 14.3828L0.456682 7.92447L1.37002 7.01107L7.82835 13.4693L6.91501 14.3828ZM0.456682 7.01107L6.91501 0.552734L7.82835 1.46607L1.37002 7.92447L0.456682 7.01107ZM0.91335 6.8219H13.83V8.11357H0.91335V6.8219ZM22.2258 15.2177V17.8011H20.9342V15.2177H22.2258ZM13.83 6.8219C18.4668 6.8219 22.2258 10.5808 22.2258 15.2177H20.9342C20.9342 11.2942 17.7536 8.11357 13.83 8.11357V6.8219Z" fill="#345782"/>
</svg>
