<svg width="240" height="196" viewBox="0 0 240 196" fill="none" xmlns="http://www.w3.org/2000/svg">
<path opacity="0.7" d="M228.632 112.584C222.155 128.568 208.2 146.085 187.666 151.788C156.638 160.406 153.866 181.125 97.5523 180.983C88.7722 180.962 80.6222 180.213 73.103 178.846C69.061 178.111 65.1998 177.192 61.5254 176.11C28.1659 166.312 9.90096 143.012 7.29456 118.114C3.86016 85.3677 31.2317 68.8466 49.0685 59.1161C66.9053 49.3856 87.2434 13.2159 142.605 13.0009C151.045 12.9712 159.5 13.6446 167.735 15.1867C186.533 18.7004 205.875 27.1725 217.494 40.0814C218.366 41.0514 219.201 42.0456 220.004 43.0601C235.675 62.9123 237.464 90.7932 228.632 112.584Z" fill="#E3EFFD"/>
<path d="M231.018 180.042H7.63403" stroke="#263238" stroke-miterlimit="10"/>
<path d="M17.2195 165.394C17.2195 165.394 24.2731 64.9681 236.062 55.8386" stroke="#263238" stroke-miterlimit="10" stroke-linecap="round" stroke-linejoin="round" stroke-dasharray="5 5"/>
<path d="M211.103 49.0649C219.165 54.4177 223.397 62.7672 225.52 70.863C229.926 87.6615 227.863 105.749 217.63 120.937C206.826 136.971 187.747 148.52 167.251 155.383C123.801 169.93 68.4918 160.392 43.8188 125.874C43.5514 125.498 43.287 125.121 43.0263 124.743C40.635 121.261 38.426 117.502 37.4766 113.561" stroke="#263238" stroke-miterlimit="10" stroke-linecap="round" stroke-linejoin="round" stroke-dasharray="5 5"/>
<path d="M141.307 122.514H17.8247C16.0151 122.514 14.731 121.337 14.731 120.088V20.4389C14.731 19.1902 16.0151 18.0129 17.8247 18.0129H141.307C143.117 18.0129 144.401 19.1902 144.401 20.4389V120.088C144.4 121.337 143.117 122.514 141.307 122.514Z" fill="#345782" stroke="#345782"/>
<path d="M144.455 120.558H20.9732C18.9884 120.558 17.3794 119.248 17.3794 117.632V17.9826C17.3794 16.3666 18.9884 15.0566 20.9732 15.0566H144.456C146.44 15.0566 148.049 16.3666 148.049 17.9826V117.632C148.049 119.248 146.44 120.558 144.455 120.558Z" fill="#E3EFFD" stroke="#345782" stroke-miterlimit="10"/>
<path d="M115.347 89.082H50.1648C46.9051 89.082 44.2627 86.9306 44.2627 84.2767V82.463C44.2627 79.8091 46.9051 77.6577 50.1648 77.6577H115.347C118.607 77.6577 121.249 79.8091 121.249 82.463V84.2767C121.249 86.9306 118.607 89.082 115.347 89.082Z" fill="white" stroke="#345782" stroke-miterlimit="10"/>
<path d="M108.411 102.728V102.728C108.411 105.014 106.093 107.033 103.008 107.033H62.5027C59.4182 107.033 57.1006 105.014 57.1006 102.728V100.914C57.1006 98.6273 59.4181 96.6086 62.5027 96.6086H103.008C106.093 96.6086 108.411 98.6273 108.411 100.914V102.728Z" fill="#345782" stroke="#345782"/>
<path d="M148.049 23.4717V18.3972C148.049 16.5522 146.212 15.0566 143.946 15.0566H21.4824C19.2164 15.0566 17.3794 16.5522 17.3794 18.3972V23.4713L148.049 23.4717Z" fill="#345782" stroke="#345782" stroke-miterlimit="10"/>
<path d="M129.119 21.3334C130.166 21.3334 131.015 20.6424 131.015 19.7901C131.015 18.9378 130.166 18.2468 129.119 18.2468C128.072 18.2468 127.224 18.9378 127.224 19.7901C127.224 20.6424 128.072 21.3334 129.119 21.3334Z" fill="white" stroke="#345782" stroke-miterlimit="10"/>
<path d="M135.517 21.3334C136.563 21.3334 137.412 20.6424 137.412 19.7901C137.412 18.9378 136.563 18.2468 135.517 18.2468C134.47 18.2468 133.621 18.9378 133.621 19.7901C133.621 20.6424 134.47 21.3334 135.517 21.3334Z" fill="white" stroke="#345782" stroke-miterlimit="10"/>
<path d="M143.81 19.7901C143.81 18.9378 142.961 18.2468 141.914 18.2468C140.867 18.2468 140.019 18.9378 140.019 19.7901C140.019 20.6424 140.867 21.3334 141.914 21.3334C142.961 21.3334 143.81 20.6424 143.81 19.7901Z" fill="white" stroke="#345782" stroke-miterlimit="10"/>
<path d="M98.7338 49.9218C98.7338 54.0412 96.3664 57.7151 92.6656 60.074C89.9733 61.8068 86.5634 62.8366 82.8712 62.8366C79.1704 62.8366 75.7605 61.8068 73.0682 60.074C69.3674 57.7151 67 54.0412 67 49.9218C67 42.7827 74.1021 37 82.8712 37C91.6317 37 98.7338 42.7823 98.7338 49.9218Z" fill="#345782" stroke="#345782" stroke-miterlimit="10"/>
<path d="M89.4938 47.8971C89.4938 44.9181 86.5274 42.5029 82.8684 42.5029C79.2093 42.5029 76.2429 44.9181 76.2429 47.8971C76.2429 50.8762 79.2093 53.2914 82.8684 53.2914C86.5274 53.2914 89.4938 50.8762 89.4938 47.8971Z" fill="white" stroke="#345782" stroke-miterlimit="10"/>
<path d="M92.6656 60.074C89.9732 61.8068 86.5633 62.8365 82.8712 62.8365C79.1704 62.8365 75.7604 61.8068 73.0681 60.074C74.0512 56.4071 78.0678 53.6582 82.8712 53.6582C87.6659 53.6582 91.683 56.4067 92.6656 60.074Z" fill="white" stroke="#345782" stroke-miterlimit="10"/>
<path d="M194.429 35.6702L213.498 38.8861L208.37 43.6655L194.429 35.6702Z" fill="white" stroke="#263238" stroke-miterlimit="10"/>
<path d="M194.429 35.6702L200.827 50.2779L206.465 45.1643L194.429 35.6702Z" fill="white" stroke="#263238" stroke-miterlimit="10"/>
<path d="M208.37 43.6655L207.935 47.3422L206.465 45.1643L194.429 35.6702L208.37 43.6655Z" fill="white" stroke="#263238" stroke-miterlimit="10"/>
<path d="M207.935 47.3422L205.455 46.1956L206.465 45.1643L207.935 47.3422Z" fill="white" stroke="#263238" stroke-miterlimit="10"/>
<path d="M164.465 134.234V96.6555C164.465 87.5436 173.57 80.1301 184.763 80.1301C195.955 80.1301 205.06 87.5432 205.06 96.6555V134.234H213.438V96.6555C213.438 83.7821 200.575 73.3091 184.763 73.3091H184.763C168.951 73.3091 156.087 83.7821 156.087 96.6555V134.234H164.465Z" fill="#263238"/>
<path d="M220.261 117.884H151.913V180.043H220.261V117.884Z" fill="#B2B2B2"/>
<path d="M220.261 123.172L151.913 178.819V180.043H158.747L220.261 129.96V123.172Z" fill="white"/>
<path d="M151.913 133.364V153.678L195.877 117.884H170.926L151.913 133.364Z" fill="white"/>
<path d="M220.261 117.884H151.913V180.043H220.261V117.884Z" stroke="#263238" stroke-miterlimit="10"/>
<path d="M220.262 117.884H205.876V180.043H220.262V117.884Z" fill="#263238" stroke="#263238" stroke-miterlimit="10"/>
<path d="M180.755 142.48C180.755 140.326 178.61 138.58 175.964 138.58C173.318 138.58 171.174 140.326 171.174 142.48C171.174 144.093 172.376 145.476 174.091 146.07L173.212 154.539H178.717L177.838 146.07C179.552 145.476 180.755 144.093 180.755 142.48Z" fill="#263238" stroke="#263238" stroke-miterlimit="10"/>
<path d="M44.7053 143.167L40.9882 158.932L35.0381 173.345L33.5683 175.598C33.5683 175.598 31.9258 177.568 31.753 179.046C31.5802 180.524 33.3091 181.369 34.6056 180.876C35.9021 180.383 36.5938 178.342 36.853 177.427C37.1122 176.512 37.6311 174.894 37.8039 174.331C37.9767 173.768 38.3227 173.345 38.3227 173.345C38.3227 173.345 48.5947 159.424 48.5947 159.002C48.5947 158.58 53.4355 148.305 53.4355 148.305L54.3864 148.375L57.2391 159.847L49.2864 173.289C49.2864 173.289 46.7799 175.682 46.9527 175.963C47.1255 176.244 48.5088 177.371 49.0272 177.652C49.5456 177.933 51.4474 180.397 52.8307 180.678C54.2136 180.96 54.7325 181.242 54.4733 180.327C54.2141 179.412 53.436 178.004 53.2632 177.582C53.0904 177.16 52.7477 174.217 52.7477 174.217L64.6733 161.395L63.1171 145.56L44.7053 143.167Z" fill="white" stroke="#263238" stroke-miterlimit="10" stroke-linecap="round" stroke-linejoin="round"/>
<path d="M50.0938 177.593C49.5092 177.235 48.157 176.097 47.3002 175.36C47.0583 175.655 46.9061 175.887 46.9527 175.964C47.1255 176.245 48.5084 177.371 49.0273 177.653C49.5457 177.934 51.4474 180.397 52.8308 180.679C53.7548 180.867 54.2909 181.053 54.469 180.885C51.6634 180.285 50.8393 178.047 50.0938 177.593Z" fill="white" stroke="#263238" stroke-miterlimit="10" stroke-linecap="round" stroke-linejoin="round"/>
<path d="M36.2165 179.118C35.3136 179.856 34.2567 180.414 33.1349 180.14C31.8154 179.818 32.1312 178.201 32.4835 177.168C32.137 177.766 31.8235 178.446 31.7535 179.046C31.5807 180.524 33.3096 181.369 34.6061 180.876C35.3146 180.607 35.8411 179.875 36.2165 179.118Z" fill="white" stroke="#263238" stroke-miterlimit="10" stroke-linecap="round" stroke-linejoin="round"/>
<path d="M44.7053 143.167L40.9887 158.932L35.0386 173.345C35.0386 173.345 35.5699 174.891 37.9138 174.042C38.0928 173.631 38.3237 173.345 38.3237 173.345C38.3237 173.345 48.5957 159.424 48.5957 159.002C48.5957 158.58 53.4365 148.305 53.4365 148.305L54.3874 148.375L57.24 159.847L49.2874 173.289C49.2874 173.289 50.3218 174.707 52.7794 174.183L64.6738 161.395L63.1176 145.56L44.7053 143.167Z" fill="#263238" stroke="#263238" stroke-miterlimit="10" stroke-linecap="round" stroke-linejoin="round"/>
<path d="M59.3044 121.188L57.1477 121.512L47.2717 144.895C47.2717 144.895 49.1447 147.575 55.2181 147.529C61.2916 147.483 63.0508 146.697 63.0508 146.697L62.8804 132.556L65.373 123.198C65.373 123.198 61.5181 121.281 59.3044 121.188Z" fill="white" stroke="#263238" stroke-miterlimit="10"/>
<path d="M70.4299 114.766C70.4299 114.766 70.4299 116.914 70.2936 117.21C70.1572 117.506 69.4747 117.914 69.4747 118.173C69.4747 118.433 70.248 119.469 70.1116 119.729C69.9753 119.988 68.6107 120.284 68.6107 120.284C68.6107 120.284 67.4736 122.098 66.9278 122.284C66.382 122.469 64.2446 121.58 64.2446 121.58L63.0168 124.654C63.0168 124.654 62.471 125.505 60.4243 125.246C58.3776 124.987 57.6499 124.358 57.5592 123.95C57.4684 123.543 57.2409 123.432 57.5136 122.987C57.7867 122.543 58.1956 121.58 58.1956 121.58L60.7881 117.137L61.1976 115.1C61.1976 115.1 62.1072 113.656 65.4729 113.36C68.8382 113.063 70.4299 114.766 70.4299 114.766Z" fill="white" stroke="#263238" stroke-miterlimit="10"/>
<path d="M66.9277 119.505C66.9277 119.505 67.0189 120.172 68.0649 120.394" stroke="#263238" stroke-miterlimit="10" stroke-linecap="round" stroke-linejoin="round"/>
<path d="M69.3839 117.025C69.3839 117.025 68.7926 116.432 68.0193 116.617" stroke="#263238" stroke-miterlimit="10" stroke-linecap="round" stroke-linejoin="round"/>
<path d="M68.6957 117.907C68.6473 118.097 68.4783 118.229 68.3185 118.202C68.1586 118.175 68.0684 117.999 68.1169 117.809C68.1653 117.618 68.3343 117.486 68.4941 117.513C68.654 117.541 68.7442 117.716 68.6957 117.907Z" fill="#263238"/>
<path d="M64.2446 121.58L62.9255 120.617L63.8807 122.616L64.2446 121.58Z" fill="#263238" stroke="#263238" stroke-miterlimit="10" stroke-linecap="round" stroke-linejoin="round"/>
<path d="M63.3351 116.543C63.3351 116.543 65.1999 116.025 65.7001 115.766C66.2002 115.507 65.5182 114.655 65.9276 114.358C66.337 114.062 68.1106 113.914 69.0658 114.173C70.021 114.432 70.0666 115.025 70.9762 114.914C71.8858 114.803 73.023 114.21 72.5228 113.173C72.0226 112.137 70.5217 111.248 69.2938 111.137C68.066 111.026 66.7926 111.285 65.2004 111.137C63.6087 110.989 61.971 110.507 61.107 111.915C60.243 113.322 59.5153 114.84 59.8335 115.581C60.1518 116.321 60.2886 117.247 60.6524 117.395C61.0153 117.543 63.3351 116.543 63.3351 116.543Z" fill="#263238" stroke="#263238" stroke-miterlimit="10"/>
<path d="M63.562 117.062C63.562 117.062 63.38 115.284 62.4248 115.618C61.4696 115.951 61.5608 117.654 62.1522 117.988C62.7436 118.321 63.2437 117.802 63.2437 117.802" fill="white"/>
<path d="M63.562 117.062C63.562 117.062 63.38 115.284 62.4248 115.618C61.4696 115.951 61.5608 117.654 62.1522 117.988C62.7436 118.321 63.2437 117.802 63.2437 117.802" stroke="#263238" stroke-miterlimit="10"/>
<path d="M56.8766 124.801L47.7801 148.833C47.7801 148.833 45.4151 147.315 44.0961 146.278C42.7771 145.241 42.4588 144.945 42.4588 144.945L45.7334 139.057L46.3247 137.169L36.7281 142.353L35.0908 139.724L43.2321 133.799C43.2321 133.799 48.2351 122.505 48.5534 122.357C48.8716 122.209 57.9681 121.209 57.9681 121.209L56.8766 124.801Z" fill="#B2B2B2" stroke="#263238" stroke-miterlimit="10"/>
<path d="M58.8322 120.579C58.8322 120.579 57.4676 120.283 56.7855 120.839C56.1034 121.394 53.6017 124.319 54.2386 124.616C54.8756 124.912 56.6036 124.134 56.6036 124.134L56.8762 124.801L58.8322 120.579Z" fill="white" stroke="#263238" stroke-miterlimit="10"/>
<path d="M49.281 126.097L46.3247 137.169" stroke="#263238" stroke-miterlimit="10" stroke-linecap="round" stroke-linejoin="round"/>
<path d="M54.1477 129.097L49.5536 128.652L49.281 129.874L53.9202 130.541L54.1477 129.874" stroke="#263238" stroke-miterlimit="10" stroke-linecap="round" stroke-linejoin="round"/>
<path d="M48.8899 127.467C48.8899 127.467 48.4037 125.267 48.2957 124.079" stroke="#263238" stroke-miterlimit="10" stroke-linecap="round" stroke-linejoin="round"/>
<path d="M48.6195 127.951C48.6195 127.951 47.8088 126.851 47.2683 126.147" stroke="#263238" stroke-miterlimit="10" stroke-linecap="round" stroke-linejoin="round"/>
<path d="M63.0163 124.652C63.0163 124.652 60.779 132.307 60.8332 134.639C60.8875 136.97 61.644 149.335 61.644 149.335C61.644 149.335 64.5624 148.895 65.0486 148.762C65.5348 148.63 67.4265 148.147 67.4265 148.147C67.4265 148.147 64.1299 139.434 64.1299 139.127C64.1299 138.819 64.7241 136.75 64.7241 136.75C64.7241 136.75 66.6696 140.315 66.9398 140.578C67.21 140.843 74.6539 143.575 74.6539 143.575L75.3163 140.358L70.6147 136.838C70.6147 136.838 69.588 130.194 69.588 129.666C69.588 129.138 69.8582 125.794 69.8582 125.794L63.9676 122.01L63.0163 124.652Z" fill="#B2B2B2" stroke="#263238" stroke-miterlimit="10"/>
<path d="M81.0326 142.492C81.0326 142.492 78.6748 142.911 78.07 142.96C77.4652 143.009 76.3166 142.911 75.803 142.763C75.2889 142.615 74.2914 142.295 74.2914 142.295C74.2914 142.295 74.0798 141.803 74.231 141.532C74.3822 141.262 75.1982 141.286 75.1982 141.286L80.3068 141.705L81.0326 142.492Z" fill="white" stroke="#263238" stroke-miterlimit="10"/>
<path d="M67.3728 128.919L64.7246 136.751" stroke="#263238" stroke-miterlimit="10" stroke-linecap="round" stroke-linejoin="round"/>
<path d="M65.9136 130.987L62.725 130.327L62.5627 131.383L65.3731 131.999" stroke="#263238" stroke-miterlimit="10" stroke-linecap="round" stroke-linejoin="round"/>
<path d="M66.3457 132.263L67.9671 130.371" stroke="#263238" stroke-miterlimit="10" stroke-linecap="round" stroke-linejoin="round"/>
<path d="M62.7793 125.883L63.3735 125.399C63.3735 125.399 64.7247 126.675 64.995 126.279C65.2652 125.883 65.8057 124.871 65.3732 123.199C64.9407 121.527 64.2447 121.579 64.2447 121.579L63.0169 124.653L62.7793 125.883Z" fill="white" stroke="#263238" stroke-miterlimit="10"/>
<path d="M93.0923 143.633L90.2536 159.258L83.7405 174.472C83.7405 174.472 81.4917 176.429 80.8715 178.639C80.2514 180.848 82.0346 180.975 82.9653 180.406C83.8955 179.838 86.1443 174.977 86.2221 174.725C86.2999 174.472 95.992 161.025 96.1471 160.836C96.3021 160.646 100.955 149.599 100.955 149.599L104.367 160.457L111.423 176.24C111.423 176.24 111.888 178.954 113.051 180.027C114.214 181.1 115.92 181.858 116.23 180.911C116.54 179.964 116.307 178.323 115.455 177.565C114.602 176.808 113.284 175.229 113.284 175.229L110.802 158.942L109.265 143.708L93.0923 143.633Z" fill="white" stroke="#263238" stroke-miterlimit="10"/>
<path d="M110.799 158.942L109.262 143.708L93.0898 143.633L90.2511 159.258L85.1045 171.279L88.0939 172.034C90.9394 168.033 96.0317 160.973 96.1435 160.836C96.2986 160.647 100.951 149.599 100.951 149.599L104.363 160.458L109.957 172.971L112.816 172.186L110.799 158.942Z" fill="#263238" stroke="#263238" stroke-miterlimit="10"/>
<path d="M82.9624 180.406C83.4452 180.111 84.2833 178.66 84.9885 177.296L83.3497 178.828L81.4115 178.386L81.7475 176.79C81.3793 177.355 81.052 177.985 80.8686 178.638C80.2484 180.848 82.0316 180.975 82.9624 180.406Z" fill="#263238" stroke="#263238" stroke-miterlimit="10"/>
<path d="M116.226 180.912C116.536 179.965 116.304 178.324 115.451 177.566C115.393 177.513 115.331 177.457 115.269 177.398L115.684 179.523L114.133 179.965L111.67 177.309C111.918 178.19 112.361 179.395 113.048 180.028C114.21 181.101 115.916 181.859 116.226 180.912Z" fill="#263238" stroke="#263238" stroke-miterlimit="10"/>
<path d="M93.0898 143.633C93.0898 143.633 96.422 148.429 101.047 148.645C105.672 148.861 109.262 143.708 109.262 143.708L93.3922 143.191L93.0898 143.633Z" fill="white" stroke="#263238" stroke-miterlimit="10"/>
<path d="M98.327 125.455C98.327 125.455 93.1353 127.512 93.0892 127.774C93.0431 128.035 89.5583 139.357 89.5583 139.357C89.5583 139.357 88.3151 141.618 89.877 142.329C91.439 143.04 94.2378 140.679 94.2378 140.679L93.0892 143.634C93.0892 143.634 96.7842 145.144 101.813 145.354C105.678 145.516 109.261 143.708 109.261 143.708L108.709 140.604C108.709 140.604 111.935 142.372 113.084 141.96C114.233 141.549 115.096 140.716 115.096 140.155C115.096 139.595 114.544 139.444 113.626 138.622C112.707 137.799 111.19 133.722 111.19 133.722C111.19 133.722 109.904 128.111 109.582 127.662C109.261 127.213 105.264 125.754 105.264 125.754L98.327 125.455Z" fill="#B2B2B2" stroke="#263238" stroke-miterlimit="10"/>
<path d="M95.0927 129.991L95.9965 132.242L94.2383 140.678" stroke="#263238" stroke-miterlimit="10"/>
<path d="M108.702 130.381L108.063 132.155L108.71 140.604" stroke="#263238" stroke-miterlimit="10"/>
<path d="M93.498 142.5C93.498 142.5 101.312 144.447 109.074 142.673" stroke="#263238" stroke-miterlimit="10"/>
<path d="M35.6711 136.578C35.6711 136.578 34.2498 136.825 33.9455 136.95C33.6412 137.074 33.5903 137.569 33.1842 137.776C32.7782 137.983 32.169 138.272 32.5242 138.479C32.8794 138.686 33.621 138.839 33.9863 138.432C34.3516 138.024 35.2679 137.679 35.4191 137.728" fill="white"/>
<path d="M35.6711 136.578C35.6711 136.578 34.2498 136.825 33.9455 136.95C33.6412 137.074 33.5903 137.569 33.1842 137.776C32.7782 137.983 32.169 138.272 32.5242 138.479C32.8794 138.686 33.621 138.839 33.9863 138.432C34.3516 138.024 35.2679 137.679 35.4191 137.728" stroke="#263238" stroke-miterlimit="10"/>
<path d="M87.2516 142.256C87.2516 142.256 86.7111 142.231 86.3929 142.024C86.0746 141.816 85.5658 141.739 85.2797 141.687C84.9937 141.635 85.0887 141.428 85.5025 141.299C85.9162 141.169 86.6794 141.221 87.061 141.351C87.4426 141.48 87.6337 141.635 87.6337 141.635L87.2516 142.256Z" fill="white" stroke="#263238" stroke-miterlimit="10"/>
<path d="M156.016 138.238H68.5129V141.529H156.016V138.238Z" fill="#345782" stroke="#263238" stroke-miterlimit="10"/>
<path d="M52.7502 125.097C42.7201 125.097 34.5889 131.717 34.5889 139.883C34.5889 148.05 42.7201 154.67 52.7502 154.67C62.7802 154.67 70.9114 148.05 70.9114 139.883C70.9114 131.717 62.7807 125.097 52.7502 125.097ZM52.7502 150.801C45.3447 150.801 39.3409 145.913 39.3409 139.883C39.3409 133.854 45.3442 128.966 52.7502 128.966C60.1556 128.966 66.1594 133.854 66.1594 139.883C66.1594 145.913 60.1561 150.801 52.7502 150.801Z" fill="#345782" stroke="#263238" stroke-miterlimit="10"/>
<path d="M140.283 138.238V153.67H144.011C144.01 153.642 144.006 153.614 144.006 153.585C144.006 151.606 145.976 150.002 148.407 150.002C150.838 150.002 152.808 151.606 152.808 153.585C152.808 153.614 152.804 153.642 152.803 153.67H156.016V138.238H140.283Z" fill="#345782" stroke="#263238" stroke-miterlimit="10"/>
<path d="M119.831 138.238V147.095H121.97C121.969 147.079 121.967 147.063 121.967 147.046C121.967 145.91 123.098 144.989 124.493 144.989C125.888 144.989 127.019 145.91 127.019 147.046C127.019 147.063 127.016 147.079 127.016 147.095H128.86V138.238H119.831Z" fill="#345782" stroke="#263238" stroke-miterlimit="10"/>
<path d="M104.673 113.807C104.673 113.807 105.934 112.966 105.361 112.126C104.787 111.285 102.264 110.04 101.232 110.352C100.199 110.663 98.1734 112.406 98.0203 113.06C97.8672 113.714 99.4732 114.616 99.779 114.647C100.085 114.678 102.685 113.433 104.673 113.807Z" fill="#263238" stroke="#263238" stroke-miterlimit="10"/>
<path d="M102.188 113.527C102.188 113.527 98.0588 114.46 96.9116 116.266C95.7649 118.071 95.6881 118.476 96.338 119.347C96.9879 120.219 98.5935 121.775 100.085 122.398C101.576 123.02 106.317 122.118 106.317 122.118C106.317 122.118 107.77 121.589 108.228 120.655C108.687 119.721 109.719 118.413 109.031 117.013C108.343 115.612 105.284 113.682 104.329 113.464C103.373 113.247 102.188 113.527 102.188 113.527Z" fill="#263238" stroke="#263238" stroke-miterlimit="10"/>
<path d="M105.193 115.889C105.193 115.889 103.134 116.92 102.078 117.522C101.022 118.124 99.7547 118.468 99.7547 118.468C99.7547 118.468 98.8043 118.812 99.0155 119.715C99.2267 120.617 99.6266 123.736 99.6266 123.736L98.9099 125.003L101.972 127.754L104.401 125.174L104.665 123.842C104.665 123.842 106.883 122.724 106.936 122.466C106.988 122.208 107.622 118.425 107.569 118.038C107.516 117.651 105.193 115.889 105.193 115.889Z" fill="white" stroke="#263238" stroke-miterlimit="10"/>
<path d="M105.552 118.538C105.552 118.538 105.437 119.379 105.437 119.503C105.437 119.627 106.355 120.281 106.011 120.53C105.667 120.779 104.979 120.935 104.979 120.935" stroke="#263238" stroke-miterlimit="10" stroke-linecap="round" stroke-linejoin="round"/>
<path d="M105.094 121.713C105.094 121.713 104.712 122.055 103.87 121.339" stroke="#263238" stroke-miterlimit="10" stroke-linecap="round" stroke-linejoin="round"/>
<path d="M104.665 123.842C104.665 123.842 103.793 123.768 103.45 123.581C103.106 123.394 102.112 122.771 102.112 122.771L104.061 125.511L104.401 125.175L104.665 123.842Z" fill="#263238" stroke="#263238" stroke-miterlimit="10" stroke-linecap="round" stroke-linejoin="round"/>
<path d="M100.162 119.285C100.162 119.285 99.4355 117.511 98.5941 118.507C97.7531 119.503 99.0913 120.904 99.7413 120.873" fill="white"/>
<path d="M100.162 119.285C100.162 119.285 99.4355 117.511 98.5941 118.507C97.7531 119.503 99.0913 120.904 99.7413 120.873" stroke="#263238" stroke-miterlimit="10"/>
<path d="M103.66 119.565C103.839 119.565 103.985 119.398 103.985 119.191C103.985 118.985 103.839 118.818 103.66 118.818C103.48 118.818 103.335 118.985 103.335 119.191C103.335 119.398 103.48 119.565 103.66 119.565Z" fill="#263238"/>
<path d="M106.528 119.565C106.707 119.565 106.853 119.398 106.853 119.191C106.853 118.985 106.707 118.818 106.528 118.818C106.348 118.818 106.203 118.985 106.203 119.191C106.203 119.398 106.348 119.565 106.528 119.565Z" fill="#263238"/>
<path d="M102.8 118.382C102.8 118.382 103.488 117.822 104.405 118.258" stroke="#263238" stroke-miterlimit="10" stroke-linecap="round" stroke-linejoin="round"/>
<path d="M105.896 118.196C105.896 118.196 106.929 117.853 107.158 118.507" stroke="#263238" stroke-miterlimit="10" stroke-linecap="round" stroke-linejoin="round"/>
<path d="M98.8998 124.048L101.576 126.818L99.7412 128.437L97.6763 125.417L98.8998 124.048Z" fill="white" stroke="#263238" stroke-miterlimit="10"/>
<path d="M101.576 126.818L101.972 127.753L101.041 127.378L101.576 126.818Z" fill="white" stroke="#263238" stroke-miterlimit="10"/>
<path d="M102.532 126.351L103.832 128.436L105.82 125.697L104.482 124.826L102.532 126.351Z" fill="white" stroke="#263238" stroke-miterlimit="10"/>
<path d="M102.532 126.351L101.972 127.754L102.914 127.005L102.532 126.351Z" fill="white" stroke="#263238" stroke-miterlimit="10"/>
<path d="M87.3863 140.698C87.3863 140.698 86.8449 141.954 86.9965 142.127C87.1554 142.308 87.6757 142.524 87.8202 142.112C87.9647 141.699 88.1097 140.781 87.9191 140.522C87.7285 140.263 87.3863 140.698 87.3863 140.698Z" fill="white" stroke="#263238" stroke-miterlimit="10"/>
<path d="M88.2449 141.087C88.2449 141.087 87.7035 142.343 87.8552 142.516C88.0141 142.697 88.5344 142.913 88.6789 142.5C88.8233 142.088 88.9683 141.169 88.7773 140.91C88.5872 140.652 88.2449 141.087 88.2449 141.087Z" fill="white" stroke="#263238" stroke-miterlimit="10"/>
<path d="M89.3581 141.035C89.3581 141.035 88.8171 142.291 88.9683 142.464C89.1272 142.645 89.6475 142.861 89.792 142.449C89.9365 142.037 90.0814 141.117 89.8909 140.859C89.7003 140.6 89.3581 141.035 89.3581 141.035Z" fill="white" stroke="#263238" stroke-miterlimit="10"/>
<path d="M90.2438 141.259C90.2438 141.259 89.8329 142.325 89.9481 142.472C90.0686 142.626 90.4636 142.809 90.5736 142.459C90.6835 142.109 90.7934 141.33 90.6484 141.11C90.5035 140.89 90.2438 141.259 90.2438 141.259Z" fill="white" stroke="#263238" stroke-miterlimit="10"/>
<path d="M35.0146 138.786C35.0146 138.786 33.3888 138.533 33.2424 138.735C33.0893 138.946 33.0207 139.544 33.5429 139.592C34.0651 139.641 35.1682 139.563 35.3996 139.298C35.6309 139.035 35.0146 138.786 35.0146 138.786Z" fill="white" stroke="#263238" stroke-miterlimit="10"/>
<path d="M34.8643 139.78C34.8643 139.78 33.2386 139.528 33.0922 139.73C32.9391 139.941 32.8699 140.539 33.3927 140.587C33.9149 140.636 35.0179 140.557 35.2493 140.293C35.4807 140.029 34.8643 139.78 34.8643 139.78Z" fill="white" stroke="#263238" stroke-miterlimit="10"/>
<path d="M35.3058 140.932C35.3058 140.932 33.6801 140.679 33.5337 140.881C33.3806 141.093 33.3119 141.69 33.8342 141.739C34.3564 141.787 35.4595 141.709 35.6908 141.445C35.9222 141.18 35.3058 140.932 35.3058 140.932Z" fill="white" stroke="#263238" stroke-miterlimit="10"/>
<path d="M35.3529 141.914C35.3529 141.914 33.9902 141.75 33.8615 141.907C33.7267 142.072 33.6523 142.53 34.091 142.558C34.5297 142.585 35.4609 142.506 35.663 142.299C35.8655 142.093 35.3529 141.914 35.3529 141.914Z" fill="white" stroke="#263238" stroke-miterlimit="10"/>
<path d="M115.596 140.698C115.596 140.698 116.138 141.954 115.986 142.127C115.827 142.308 115.307 142.524 115.162 142.112C115.018 141.699 114.873 140.781 115.064 140.522C115.254 140.263 115.596 140.698 115.596 140.698Z" fill="white" stroke="#263238" stroke-miterlimit="10"/>
<path d="M114.738 141.087C114.738 141.087 115.279 142.343 115.127 142.516C114.969 142.697 114.448 142.913 114.304 142.5C114.159 142.088 114.014 141.169 114.205 140.91C114.395 140.652 114.738 141.087 114.738 141.087Z" fill="white" stroke="#263238" stroke-miterlimit="10"/>
<path d="M113.625 141.035C113.625 141.035 114.165 142.291 114.014 142.464C113.855 142.645 113.335 142.861 113.191 142.449C113.046 142.037 112.901 141.117 113.092 140.859C113.282 140.6 113.625 141.035 113.625 141.035Z" fill="white" stroke="#263238" stroke-miterlimit="10"/>
<path d="M112.739 141.259C112.739 141.259 113.15 142.325 113.035 142.472C112.914 142.626 112.519 142.809 112.409 142.459C112.299 142.109 112.189 141.33 112.334 141.11C112.479 140.89 112.739 141.259 112.739 141.259Z" fill="white" stroke="#263238" stroke-miterlimit="10"/>
<path d="M74.6544 143.575L74.1101 141.557" stroke="#263238" stroke-miterlimit="10"/>
<path d="M78.4862 142.803L81.5774 142.444L83.0227 141.431C83.0227 141.431 83.5444 140.091 83.6246 139.927C83.7048 139.764 83.5444 139.437 83.1427 139.535C82.7414 139.633 82.6209 140.123 82.6209 140.123C82.6209 140.123 82.2998 139.208 81.9787 139.404C81.6576 139.6 81.6172 139.862 81.6172 139.862C81.6172 139.862 81.0955 139.339 80.8545 139.502C80.6136 139.665 80.5334 140.156 80.5334 140.156C80.5334 140.156 79.931 139.764 79.7304 139.993C79.5297 140.221 79.7304 140.614 79.7304 140.614L79.9713 141.398L79.57 141.463L77.8843 141.528" fill="white"/>
<path d="M78.4862 142.803L81.5774 142.444L83.0227 141.431C83.0227 141.431 83.5444 140.091 83.6246 139.927C83.7048 139.764 83.5444 139.437 83.1427 139.535C82.7414 139.633 82.6209 140.123 82.6209 140.123C82.6209 140.123 82.2998 139.208 81.9787 139.404C81.6576 139.6 81.6172 139.862 81.6172 139.862C81.6172 139.862 81.0955 139.339 80.8545 139.502C80.6136 139.665 80.5334 140.156 80.5334 140.156C80.5334 140.156 79.931 139.764 79.7304 139.993C79.5297 140.221 79.7304 140.614 79.7304 140.614L79.9713 141.398L79.57 141.463L77.8843 141.528" stroke="#263238" stroke-miterlimit="10"/>
<path d="M81.6172 139.862C81.6172 139.862 81.9513 140.872 81.9979 140.985C82.0444 141.099 81.7377 142.313 81.5774 142.444" stroke="#263238" stroke-miterlimit="10"/>
<path d="M82.6208 140.123C82.6208 140.123 82.9977 141.098 82.8114 141.496" stroke="#263238" stroke-miterlimit="10"/>
<path d="M80.5334 140.156L81.0677 141.023C81.0677 141.023 81.0446 142.12 80.8584 142.404" stroke="#263238" stroke-miterlimit="10"/>
<path d="M79.9712 141.397L79.9981 141.818" stroke="#263238" stroke-miterlimit="10"/>
<path d="M78.0452 141.591C78.0452 141.591 77.58 141.932 77.9756 142.386" stroke="#263238" stroke-miterlimit="10"/>
</svg>
